STARTFONT 2.1
FONT -Adobe-Helvetica-Bold-R-Narrow--14-100-100-100-P-70-ISO8859-1
SIZE 10 100 100
FONTBOUNDINGBOX 16 15 -2 -3

STARTPROPERTIES 26
_DEC_DEVICE_FONTNAMES "PS=Helvetica-Narrow-Bold"
FONTNAME_REGISTRY ""
FAMILY_NAME "Helvetica"
FOUNDRY "Adobe"
WEIGHT_NAME "Bold"
SLANT "R"
SETWIDTH_NAME "Narrow"
ADD_STYLE_NAME ""
PIXEL_SIZE 14
POINT_SIZE 100
RESOLUTION_X 100
RESOLUTION_Y 100
SPACING "P"
AVERAGE_WIDTH 70
CHARSET_REGISTRY "ISO8859"
CHARSET_ENCODING "1"
CHARSET_COLLECTIONS "ASCII ISO8859-1 ADOBE-STANDARD"
FULL_NAME "Helvetica Narrow Bold"
COPYRIGHT "Copyright (c) 1991 Adobe Systems, Inc."
CAP_HEIGHT 11
X_HEIGHT 8
WEIGHT 10
QUAD_WIDTH 7
DEFAULT_CHAR 0
FONT_DESCENT 3
FONT_ASCENT 12
ENDPROPERTIES

CHARS 190

STARTCHAR space
ENCODING 32
SWIDTH 228 0
DWIDTH 3 0
BBX 1 1 0 0
BITMAP
00
ENDCHAR

STARTCHAR exclam
ENCODING 33
SWIDTH 273 0
DWIDTH 4 0
BBX 2 11 1 0
BITMAP
C0
C0
C0
C0
C0
C0
C0
C0
00
C0
C0
ENDCHAR

STARTCHAR quotedbl
ENCODING 34
SWIDTH 389 0
DWIDTH 4 0
BBX 3 3 0 8
BITMAP
A0
A0
A0
ENDCHAR

STARTCHAR numbersign
ENCODING 35
SWIDTH 456 0
DWIDTH 7 0
BBX 9 11 -1 0
BITMAP
1B00
1B00
1B00
7F80
3600
3600
3600
FF00
6C00
6C00
6C00
ENDCHAR

STARTCHAR dollar
ENCODING 36
SWIDTH 456 0
DWIDTH 7 0
BBX 6 13 0 -2
BITMAP
30
78
DC
D4
F0
70
38
3C
AC
EC
78
30
30
ENDCHAR

STARTCHAR percent
ENCODING 37
SWIDTH 729 0
DWIDTH 11 0
BBX 10 11 0 0
BITMAP
7180
FB00
DB00
FE00
7600
0C00
1B80
1FC0
36C0
37C0
6380
ENDCHAR

STARTCHAR ampersand
ENCODING 38
SWIDTH 592 0
DWIDTH 9 0
BBX 9 11 0 0
BITMAP
3800
7C00
6C00
6C00
3800
7980
DD80
CF00
CE00
FF00
7380
ENDCHAR

STARTCHAR quoteright
ENCODING 39
SWIDTH 228 0
DWIDTH 3 0
BBX 2 4 0 7
BITMAP
C0
C0
40
80
ENDCHAR

STARTCHAR parenleft
ENCODING 40
SWIDTH 273 0
DWIDTH 4 0
BBX 4 14 0 -3
BITMAP
30
60
60
C0
C0
C0
C0
C0
C0
C0
C0
60
60
30
ENDCHAR

STARTCHAR parenright
ENCODING 41
SWIDTH 273 0
DWIDTH 4 0
BBX 4 14 -1 -3
BITMAP
C0
60
60
30
30
30
30
30
30
30
30
60
60
C0
ENDCHAR

STARTCHAR asterisk
ENCODING 42
SWIDTH 319 0
DWIDTH 6 0
BBX 5 5 0 6
BITMAP
20
F8
70
70
D8
ENDCHAR

STARTCHAR plus
ENCODING 43
SWIDTH 479 0
DWIDTH 7 0
BBX 6 6 0 1
BITMAP
30
30
FC
FC
30
30
ENDCHAR

STARTCHAR comma
ENCODING 44
SWIDTH 228 0
DWIDTH 3 0
BBX 2 4 0 -2
BITMAP
C0
C0
40
80
ENDCHAR

STARTCHAR minus
ENCODING 45
SWIDTH 479 0
DWIDTH 9 0
BBX 6 2 1 3
BITMAP
FC
FC
ENDCHAR

STARTCHAR period
ENCODING 46
SWIDTH 228 0
DWIDTH 3 0
BBX 2 2 0 0
BITMAP
C0
C0
ENDCHAR

STARTCHAR slash
ENCODING 47
SWIDTH 228 0
DWIDTH 4 0
BBX 5 13 -1 -2
BITMAP
18
18
18
30
30
30
20
60
60
60
C0
C0
C0
ENDCHAR

STARTCHAR zero
ENCODING 48
SWIDTH 456 0
DWIDTH 7 0
BBX 6 11 0 0
BITMAP
78
FC
CC
CC
CC
CC
CC
CC
CC
FC
78
ENDCHAR

STARTCHAR one
ENCODING 49
SWIDTH 456 0
DWIDTH 6 0
BBX 4 11 0 0
BITMAP
30
F0
F0
30
30
30
30
30
30
30
30
ENDCHAR

STARTCHAR two
ENCODING 50
SWIDTH 456 0
DWIDTH 7 0
BBX 6 11 0 0
BITMAP
78
FC
CC
CC
18
38
70
60
C0
FC
FC
ENDCHAR

STARTCHAR three
ENCODING 51
SWIDTH 456 0
DWIDTH 7 0
BBX 6 11 0 0
BITMAP
78
FC
CC
0C
38
38
0C
CC
CC
FC
78
ENDCHAR

STARTCHAR four
ENCODING 52
SWIDTH 456 0
DWIDTH 7 0
BBX 7 11 0 0
BITMAP
1C
1C
3C
3C
6C
6C
CC
FE
FE
0C
0C
ENDCHAR

STARTCHAR five
ENCODING 53
SWIDTH 456 0
DWIDTH 7 0
BBX 6 11 0 0
BITMAP
FC
FC
C0
C0
F8
FC
0C
CC
CC
FC
78
ENDCHAR

STARTCHAR six
ENCODING 54
SWIDTH 456 0
DWIDTH 7 0
BBX 6 11 0 0
BITMAP
78
FC
CC
C0
F8
FC
CC
CC
CC
FC
78
ENDCHAR

STARTCHAR seven
ENCODING 55
SWIDTH 456 0
DWIDTH 7 0
BBX 6 11 0 0
BITMAP
FC
FC
0C
18
18
30
30
30
60
60
60
ENDCHAR

STARTCHAR eight
ENCODING 56
SWIDTH 456 0
DWIDTH 7 0
BBX 6 11 0 0
BITMAP
78
FC
CC
CC
78
78
CC
CC
CC
FC
78
ENDCHAR

STARTCHAR nine
ENCODING 57
SWIDTH 456 0
DWIDTH 7 0
BBX 6 11 0 0
BITMAP
78
FC
CC
CC
CC
FC
7C
0C
CC
FC
78
ENDCHAR

STARTCHAR colon
ENCODING 58
SWIDTH 273 0
DWIDTH 4 0
BBX 2 8 1 0
BITMAP
C0
C0
00
00
00
00
C0
C0
ENDCHAR

STARTCHAR semicolon
ENCODING 59
SWIDTH 273 0
DWIDTH 4 0
BBX 2 10 1 -2
BITMAP
C0
C0
00
00
00
00
C0
C0
40
80
ENDCHAR

STARTCHAR less
ENCODING 60
SWIDTH 479 0
DWIDTH 7 0
BBX 6 6 0 1
BITMAP
0C
38
E0
E0
38
0C
ENDCHAR

STARTCHAR equal
ENCODING 61
SWIDTH 479 0
DWIDTH 7 0
BBX 6 5 0 2
BITMAP
FC
FC
00
FC
FC
ENDCHAR

STARTCHAR greater
ENCODING 62
SWIDTH 479 0
DWIDTH 7 0
BBX 6 6 0 1
BITMAP
C0
70
1C
1C
70
C0
ENDCHAR

STARTCHAR question
ENCODING 63
SWIDTH 501 0
DWIDTH 7 0
BBX 6 11 0 0
BITMAP
78
FC
CC
CC
1C
38
30
30
00
30
30
ENDCHAR

STARTCHAR at
ENCODING 64
SWIDTH 800 0
DWIDTH 12 0
BBX 11 12 0 -1
BITMAP
0F00
39C0
6040
4DA0
DB20
B360
B240
B6C0
DD80
4000
7180
1F00
ENDCHAR

STARTCHAR A
ENCODING 65
SWIDTH 592 0
DWIDTH 8 0
BBX 8 11 0 0
BITMAP
18
18
3C
3C
3C
66
66
7E
FF
C3
C3
ENDCHAR

STARTCHAR B
ENCODING 66
SWIDTH 592 0
DWIDTH 8 0
BBX 6 11 1 0
BITMAP
F8
FC
CC
CC
F8
F8
CC
CC
CC
FC
F8
ENDCHAR

STARTCHAR C
ENCODING 67
SWIDTH 592 0
DWIDTH 8 0
BBX 6 11 1 0
BITMAP
78
FC
CC
C0
C0
C0
C0
C0
CC
FC
78
ENDCHAR

STARTCHAR D
ENCODING 68
SWIDTH 592 0
DWIDTH 9 0
BBX 7 11 1 0
BITMAP
F8
FC
CE
C6
C6
C6
C6
C6
CE
FC
F8
ENDCHAR

STARTCHAR E
ENCODING 69
SWIDTH 547 0
DWIDTH 8 0
BBX 6 11 1 0
BITMAP
FC
FC
C0
C0
F8
F8
C0
C0
C0
FC
FC
ENDCHAR

STARTCHAR F
ENCODING 70
SWIDTH 501 0
DWIDTH 7 0
BBX 6 11 1 0
BITMAP
FC
FC
C0
C0
F8
F8
C0
C0
C0
C0
C0
ENDCHAR

STARTCHAR G
ENCODING 71
SWIDTH 638 0
DWIDTH 9 0
BBX 7 11 1 0
BITMAP
7C
FE
C6
C0
C0
DE
DE
C6
C6
FE
76
ENDCHAR

STARTCHAR H
ENCODING 72
SWIDTH 592 0
DWIDTH 9 0
BBX 7 11 1 0
BITMAP
C6
C6
C6
C6
FE
FE
C6
C6
C6
C6
C6
ENDCHAR

STARTCHAR I
ENCODING 73
SWIDTH 228 0
DWIDTH 6 0
BBX 2 11 2 0
BITMAP
C0
C0
C0
C0
C0
C0
C0
C0
C0
C0
C0
ENDCHAR

STARTCHAR J
ENCODING 74
SWIDTH 456 0
DWIDTH 6 0
BBX 5 11 0 0
BITMAP
18
18
18
18
18
18
18
18
D8
F8
70
ENDCHAR

STARTCHAR K
ENCODING 75
SWIDTH 592 0
DWIDTH 8 0
BBX 7 11 1 0
BITMAP
C6
CC
CC
D8
F0
F0
F8
D8
CC
CE
C6
ENDCHAR

STARTCHAR L
ENCODING 76
SWIDTH 501 0
DWIDTH 7 0
BBX 6 11 1 0
BITMAP
C0
C0
C0
C0
C0
C0
C0
C0
C0
FC
FC
ENDCHAR

STARTCHAR M
ENCODING 77
SWIDTH 683 0
DWIDTH 11 0
BBX 9 11 1 0
BITMAP
C180
C180
E380
E380
E380
F780
F780
DD80
DD80
C980
C980
ENDCHAR

STARTCHAR N
ENCODING 78
SWIDTH 592 0
DWIDTH 9 0
BBX 7 11 1 0
BITMAP
C6
C6
E6
E6
F6
D6
DE
CE
CE
C6
C6
ENDCHAR

STARTCHAR O
ENCODING 79
SWIDTH 638 0
DWIDTH 9 0
BBX 7 11 1 0
BITMAP
7C
FE
C6
C6
C6
C6
C6
C6
C6
FE
7C
ENDCHAR

STARTCHAR P
ENCODING 80
SWIDTH 547 0
DWIDTH 9 0
BBX 7 11 1 0
BITMAP
FC
FE
C6
C6
C6
FE
FC
C0
C0
C0
C0
ENDCHAR

STARTCHAR Q
ENCODING 81
SWIDTH 638 0
DWIDTH 9 0
BBX 7 12 1 -1
BITMAP
7C
FE
C6
C6
C6
C6
C6
C6
CE
FC
7E
06
ENDCHAR

STARTCHAR R
ENCODING 82
SWIDTH 592 0
DWIDTH 9 0
BBX 7 11 1 0
BITMAP
FC
FE
C6
C6
C6
FC
FC
CE
C6
C6
C6
ENDCHAR

STARTCHAR S
ENCODING 83
SWIDTH 547 0
DWIDTH 8 0
BBX 6 11 1 0
BITMAP
78
FC
CC
C0
E0
78
1C
0C
CC
FC
78
ENDCHAR

STARTCHAR T
ENCODING 84
SWIDTH 501 0
DWIDTH 6 0
BBX 6 11 0 0
BITMAP
FC
FC
30
30
30
30
30
30
30
30
30
ENDCHAR

STARTCHAR U
ENCODING 85
SWIDTH 592 0
DWIDTH 9 0
BBX 7 11 1 0
BITMAP
C6
C6
C6
C6
C6
C6
C6
C6
C6
FE
7C
ENDCHAR

STARTCHAR V
ENCODING 86
SWIDTH 547 0
DWIDTH 8 0
BBX 8 11 0 0
BITMAP
C3
C3
66
66
66
3C
3C
3C
18
18
18
ENDCHAR

STARTCHAR W
ENCODING 87
SWIDTH 774 0
DWIDTH 10 0
BBX 10 11 0 0
BITMAP
CCC0
CCC0
CCC0
6D80
6D80
6D80
7F80
3B00
3300
3300
3300
ENDCHAR

STARTCHAR X
ENCODING 88
SWIDTH 547 0
DWIDTH 8 0
BBX 8 11 0 0
BITMAP
C3
C3
66
7E
3C
18
3C
7E
66
C3
C3
ENDCHAR

STARTCHAR Y
ENCODING 89
SWIDTH 547 0
DWIDTH 8 0
BBX 8 11 0 0
BITMAP
C3
C3
66
66
3C
3C
18
18
18
18
18
ENDCHAR

STARTCHAR Z
ENCODING 90
SWIDTH 501 0
DWIDTH 7 0
BBX 7 11 0 0
BITMAP
FE
FE
0C
18
18
30
60
60
C0
FE
FE
ENDCHAR

STARTCHAR bracketleft
ENCODING 91
SWIDTH 273 0
DWIDTH 4 0
BBX 3 14 0 -3
BITMAP
E0
C0
C0
C0
C0
C0
C0
C0
C0
C0
C0
C0
C0
E0
ENDCHAR

STARTCHAR backslash
ENCODING 92
SWIDTH 228 0
DWIDTH 5 0
BBX 4 11 0 0
BITMAP
C0
C0
C0
E0
60
60
60
70
30
30
30
ENDCHAR

STARTCHAR bracketright
ENCODING 93
SWIDTH 273 0
DWIDTH 4 0
BBX 3 14 0 -3
BITMAP
E0
60
60
60
60
60
60
60
60
60
60
60
60
E0
ENDCHAR

STARTCHAR asciicircum
ENCODING 94
SWIDTH 479 0
DWIDTH 7 0
BBX 5 5 0 6
BITMAP
20
70
70
D8
88
ENDCHAR

STARTCHAR underscore
ENCODING 95
SWIDTH 456 0
DWIDTH 7 0
BBX 7 1 0 -2
BITMAP
FE
ENDCHAR

STARTCHAR quoteleft
ENCODING 96
SWIDTH 228 0
DWIDTH 3 0
BBX 2 4 0 7
BITMAP
40
80
C0
C0
ENDCHAR

STARTCHAR a
ENCODING 97
SWIDTH 456 0
DWIDTH 7 0
BBX 7 8 0 0
BITMAP
78
FC
8C
7C
FC
CC
FC
76
ENDCHAR

STARTCHAR b
ENCODING 98
SWIDTH 501 0
DWIDTH 7 0
BBX 6 11 0 0
BITMAP
C0
C0
C0
D8
FC
CC
CC
CC
CC
FC
D8
ENDCHAR

STARTCHAR c
ENCODING 99
SWIDTH 456 0
DWIDTH 7 0
BBX 6 8 0 0
BITMAP
78
FC
CC
C0
C0
CC
FC
78
ENDCHAR

STARTCHAR d
ENCODING 100
SWIDTH 501 0
DWIDTH 7 0
BBX 6 11 0 0
BITMAP
0C
0C
0C
6C
FC
CC
CC
CC
CC
FC
6C
ENDCHAR

STARTCHAR e
ENCODING 101
SWIDTH 456 0
DWIDTH 7 0
BBX 6 8 0 0
BITMAP
78
FC
CC
FC
FC
C0
FC
78
ENDCHAR

STARTCHAR f
ENCODING 102
SWIDTH 273 0
DWIDTH 5 0
BBX 4 11 0 0
BITMAP
30
70
60
F0
F0
60
60
60
60
60
60
ENDCHAR

STARTCHAR g
ENCODING 103
SWIDTH 501 0
DWIDTH 7 0
BBX 6 11 0 -3
BITMAP
6C
FC
CC
CC
CC
CC
FC
6C
0C
FC
78
ENDCHAR

STARTCHAR h
ENCODING 104
SWIDTH 501 0
DWIDTH 7 0
BBX 6 11 0 0
BITMAP
C0
C0
C0
D8
FC
EC
CC
CC
CC
CC
CC
ENDCHAR

STARTCHAR i
ENCODING 105
SWIDTH 228 0
DWIDTH 5 0
BBX 2 11 1 0
BITMAP
C0
C0
00
C0
C0
C0
C0
C0
C0
C0
C0
ENDCHAR

STARTCHAR j
ENCODING 106
SWIDTH 228 0
DWIDTH 5 0
BBX 3 14 0 -3
BITMAP
60
60
00
60
60
60
60
60
60
60
60
60
60
C0
ENDCHAR

STARTCHAR k
ENCODING 107
SWIDTH 456 0
DWIDTH 6 0
BBX 6 11 0 0
BITMAP
C0
C0
C0
CC
D8
F0
E0
F0
D8
D8
CC
ENDCHAR

STARTCHAR l
ENCODING 108
SWIDTH 228 0
DWIDTH 5 0
BBX 2 11 1 0
BITMAP
C0
C0
C0
C0
C0
C0
C0
C0
C0
C0
C0
ENDCHAR

STARTCHAR m
ENCODING 109
SWIDTH 729 0
DWIDTH 11 0
BBX 10 8 0 0
BITMAP
BB80
FFC0
EEC0
CCC0
CCC0
CCC0
CCC0
CCC0
ENDCHAR

STARTCHAR n
ENCODING 110
SWIDTH 501 0
DWIDTH 7 0
BBX 6 8 0 0
BITMAP
D8
FC
EC
CC
CC
CC
CC
CC
ENDCHAR

STARTCHAR o
ENCODING 111
SWIDTH 501 0
DWIDTH 7 0
BBX 6 8 0 0
BITMAP
78
FC
CC
CC
CC
CC
FC
78
ENDCHAR

STARTCHAR p
ENCODING 112
SWIDTH 501 0
DWIDTH 7 0
BBX 6 11 0 -3
BITMAP
D8
FC
CC
CC
CC
CC
FC
D8
C0
C0
C0
ENDCHAR

STARTCHAR q
ENCODING 113
SWIDTH 501 0
DWIDTH 7 0
BBX 6 11 0 -3
BITMAP
6C
FC
CC
CC
CC
CC
FC
6C
0C
0C
0C
ENDCHAR

STARTCHAR r
ENCODING 114
SWIDTH 319 0
DWIDTH 4 0
BBX 4 8 0 0
BITMAP
B0
E0
C0
C0
C0
C0
C0
C0
ENDCHAR

STARTCHAR s
ENCODING 115
SWIDTH 456 0
DWIDTH 7 0
BBX 6 8 0 0
BITMAP
78
FC
E0
78
1C
CC
FC
78
ENDCHAR

STARTCHAR t
ENCODING 116
SWIDTH 273 0
DWIDTH 5 0
BBX 4 10 0 0
BITMAP
60
60
F0
F0
60
60
60
60
70
30
ENDCHAR

STARTCHAR u
ENCODING 117
SWIDTH 501 0
DWIDTH 7 0
BBX 6 8 0 0
BITMAP
CC
CC
CC
CC
CC
DC
FC
6C
ENDCHAR

STARTCHAR v
ENCODING 118
SWIDTH 456 0
DWIDTH 7 0
BBX 6 8 0 0
BITMAP
CC
CC
CC
78
78
78
30
30
ENDCHAR

STARTCHAR w
ENCODING 119
SWIDTH 638 0
DWIDTH 9 0
BBX 8 8 0 0
BITMAP
DB
DB
DB
7E
76
76
24
24
ENDCHAR

STARTCHAR x
ENCODING 120
SWIDTH 456 0
DWIDTH 7 0
BBX 6 8 0 0
BITMAP
CC
CC
78
70
38
78
CC
CC
ENDCHAR

STARTCHAR y
ENCODING 121
SWIDTH 456 0
DWIDTH 7 0
BBX 6 11 0 -3
BITMAP
CC
CC
CC
48
78
78
38
30
30
F0
E0
ENDCHAR

STARTCHAR z
ENCODING 122
SWIDTH 410 0
DWIDTH 7 0
BBX 6 8 0 0
BITMAP
FC
FC
18
30
30
60
FC
FC
ENDCHAR

STARTCHAR braceleft
ENCODING 123
SWIDTH 319 0
DWIDTH 4 0
BBX 4 14 0 -3
BITMAP
30
60
60
60
60
40
80
40
60
60
60
60
60
30
ENDCHAR

STARTCHAR bar
ENCODING 124
SWIDTH 230 0
DWIDTH 3 0
BBX 1 13 1 -2
BITMAP
80
80
80
80
80
80
80
80
80
80
80
80
80
ENDCHAR

STARTCHAR braceright
ENCODING 125
SWIDTH 319 0
DWIDTH 4 0
BBX 4 14 0 -3
BITMAP
C0
60
60
60
60
20
10
20
60
60
60
60
60
C0
ENDCHAR

STARTCHAR asciitilde
ENCODING 126
SWIDTH 479 0
DWIDTH 7 0
BBX 6 3 0 3
BITMAP
64
FC
98
ENDCHAR

STARTCHAR exclamdown
ENCODING 161
SWIDTH 273 0
DWIDTH 3 0
BBX 2 11 0 -3
BITMAP
C0
C0
00
C0
C0
C0
C0
C0
C0
C0
C0
ENDCHAR

STARTCHAR cent
ENCODING 162
SWIDTH 456 0
DWIDTH 7 0
BBX 6 10 0 -1
BITMAP
0C
78
FC
D4
D0
E0
EC
FC
78
C0
ENDCHAR

STARTCHAR sterling
ENCODING 163
SWIDTH 456 0
DWIDTH 7 0
BBX 7 11 0 0
BITMAP
38
7C
64
60
30
FC
30
30
60
FE
DC
ENDCHAR

STARTCHAR currency
ENCODING 164
SWIDTH 456 0
DWIDTH 7 0
BBX 6 6 0 3
BITMAP
CC
78
CC
CC
78
CC
ENDCHAR

STARTCHAR yen
ENCODING 165
SWIDTH 456 0
DWIDTH 7 0
BBX 8 11 -1 0
BITMAP
C3
C3
66
66
3C
7E
18
7E
18
18
18
ENDCHAR

STARTCHAR brokenbar
ENCODING 166
SWIDTH 230 0
DWIDTH 3 0
BBX 1 13 1 -2
BITMAP
80
80
80
80
80
00
00
80
80
80
80
80
80
ENDCHAR

STARTCHAR section
ENCODING 167
SWIDTH 456 0
DWIDTH 7 0
BBX 6 14 0 -3
BITMAP
78
FC
CC
E0
70
D8
CC
CC
6C
38
1C
CC
FC
78
ENDCHAR

STARTCHAR dieresis
ENCODING 168
SWIDTH 273 0
DWIDTH 5 0
BBX 5 2 0 9
BITMAP
D8
D8
ENDCHAR

STARTCHAR copyright
ENCODING 169
SWIDTH 604 0
DWIDTH 12 0
BBX 11 11 0 0
BITMAP
1F00
71C0
6EC0
DB60
DB60
D860
DB60
DB60
6EC0
71C0
1F00
ENDCHAR

STARTCHAR ordfeminine
ENCODING 170
SWIDTH 303 0
DWIDTH 5 0
BBX 4 7 0 4
BITMAP
60
B0
70
B0
D0
00
F0
ENDCHAR

STARTCHAR guillemotleft
ENCODING 171
SWIDTH 456 0
DWIDTH 8 0
BBX 7 5 0 2
BITMAP
36
6C
D8
6C
36
ENDCHAR

STARTCHAR logicalnot
ENCODING 172
SWIDTH 479 0
DWIDTH 9 0
BBX 6 4 1 3
BITMAP
FC
FC
0C
0C
ENDCHAR

STARTCHAR hyphen
ENCODING 173
SWIDTH 273 0
DWIDTH 4 0
BBX 3 2 0 3
BITMAP
E0
E0
ENDCHAR

STARTCHAR registered
ENCODING 174
SWIDTH 604 0
DWIDTH 12 0
BBX 11 11 0 0
BITMAP
1F00
71C0
7EC0
DB60
DB60
DE60
DF60
DB60
7BC0
71C0
1F00
ENDCHAR

STARTCHAR macron
ENCODING 175
SWIDTH 273 0
DWIDTH 4 0
BBX 4 2 0 9
BITMAP
F0
F0
ENDCHAR

STARTCHAR degree
ENCODING 176
SWIDTH 328 0
DWIDTH 6 0
BBX 4 4 1 7
BITMAP
60
90
90
60
ENDCHAR

STARTCHAR plusminus
ENCODING 177
SWIDTH 479 0
DWIDTH 7 0
BBX 6 9 0 1
BITMAP
30
30
FC
FC
30
30
00
FC
FC
ENDCHAR

STARTCHAR twosuperior
ENCODING 178
SWIDTH 273 0
DWIDTH 4 0
BBX 4 6 0 5
BITMAP
60
90
10
20
40
F0
ENDCHAR

STARTCHAR threesuperior
ENCODING 179
SWIDTH 273 0
DWIDTH 4 0
BBX 4 6 0 5
BITMAP
60
90
20
10
90
60
ENDCHAR

STARTCHAR acute
ENCODING 180
SWIDTH 273 0
DWIDTH 4 0
BBX 4 3 1 9
BITMAP
30
70
C0
ENDCHAR

STARTCHAR mu
ENCODING 181
SWIDTH 501 0
DWIDTH 7 0
BBX 6 11 0 -3
BITMAP
CC
CC
CC
CC
CC
DC
FC
EC
C0
C0
C0
ENDCHAR

STARTCHAR paragraph
ENCODING 182
SWIDTH 456 0
DWIDTH 10 0
BBX 7 14 1 -3
BITMAP
7E
FE
F6
F6
F6
76
36
36
36
36
36
36
36
36
ENDCHAR

STARTCHAR periodcentered
ENCODING 183
SWIDTH 228 0
DWIDTH 3 0
BBX 2 2 0 5
BITMAP
C0
C0
ENDCHAR

STARTCHAR cedilla
ENCODING 184
SWIDTH 273 0
DWIDTH 5 0
BBX 3 3 1 -3
BITMAP
40
60
C0
ENDCHAR

STARTCHAR onesuperior
ENCODING 185
SWIDTH 273 0
DWIDTH 4 0
BBX 2 6 0 5
BITMAP
40
C0
40
40
40
40
ENDCHAR

STARTCHAR ordmasculine
ENCODING 186
SWIDTH 299 0
DWIDTH 6 0
BBX 5 7 0 4
BITMAP
70
D8
D8
D8
70
00
F8
ENDCHAR

STARTCHAR guillemotright
ENCODING 187
SWIDTH 456 0
DWIDTH 8 0
BBX 7 5 0 2
BITMAP
D8
6C
36
6C
D8
ENDCHAR

STARTCHAR onequarter
ENCODING 188
SWIDTH 684 0
DWIDTH 11 0
BBX 10 11 0 0
BITMAP
4100
C100
4200
4200
4400
4C80
0980
1280
1280
27C0
2080
ENDCHAR

STARTCHAR onehalf
ENCODING 189
SWIDTH 684 0
DWIDTH 11 0
BBX 10 11 0 0
BITMAP
4100
C100
4200
4200
4400
4D80
0A40
1040
1080
2100
23C0
ENDCHAR

STARTCHAR threequarters
ENCODING 190
SWIDTH 684 0
DWIDTH 11 0
BBX 10 11 0 0
BITMAP
6100
9100
2200
1200
9400
6C80
0980
1280
1280
27C0
2080
ENDCHAR

STARTCHAR questiondown
ENCODING 191
SWIDTH 501 0
DWIDTH 7 0
BBX 6 11 0 -3
BITMAP
30
30
00
30
30
70
E0
CC
CC
FC
78
ENDCHAR

STARTCHAR Agrave
ENCODING 192
SWIDTH 592 0
DWIDTH 8 0
BBX 8 12 0 0
BITMAP
30
38
0C
00
18
18
3C
24
7E
7E
C3
C3
ENDCHAR

STARTCHAR Aacute
ENCODING 193
SWIDTH 592 0
DWIDTH 8 0
BBX 8 12 0 0
BITMAP
0C
1C
30
00
18
18
3C
24
7E
7E
C3
C3
ENDCHAR

STARTCHAR Acircumflex
ENCODING 194
SWIDTH 592 0
DWIDTH 8 0
BBX 8 12 0 0
BITMAP
18
3C
66
00
18
18
3C
24
7E
7E
C3
C3
ENDCHAR

STARTCHAR Atilde
ENCODING 195
SWIDTH 592 0
DWIDTH 8 0
BBX 8 12 0 0
BITMAP
1A
3E
2C
00
18
18
3C
24
7E
7E
C3
C3
ENDCHAR

STARTCHAR Adieresis
ENCODING 196
SWIDTH 592 0
DWIDTH 8 0
BBX 8 11 0 0
BITMAP
6C
6C
00
18
18
3C
24
7E
7E
C3
C3
ENDCHAR

STARTCHAR Aring
ENCODING 197
SWIDTH 592 0
DWIDTH 8 0
BBX 8 12 0 0
BITMAP
18
34
18
00
18
18
3C
24
7E
7E
C3
C3
ENDCHAR

STARTCHAR AE
ENCODING 198
SWIDTH 820 0
DWIDTH 12 0
BBX 11 11 0 0
BITMAP
1FE0
1FE0
3E00
3600
37C0
67C0
6600
7E00
FE00
C7E0
C7E0
ENDCHAR

STARTCHAR Ccedilla
ENCODING 199
SWIDTH 592 0
DWIDTH 8 0
BBX 6 14 1 -3
BITMAP
78
FC
CC
C0
C0
C0
C0
C0
CC
FC
78
20
30
60
ENDCHAR

STARTCHAR Egrave
ENCODING 200
SWIDTH 547 0
DWIDTH 8 0
BBX 6 12 1 0
BITMAP
60
70
18
00
FC
FC
C0
F8
F8
C0
FC
FC
ENDCHAR

STARTCHAR Eacute
ENCODING 201
SWIDTH 547 0
DWIDTH 8 0
BBX 6 12 1 0
BITMAP
18
38
60
00
FC
FC
C0
F8
F8
C0
FC
FC
ENDCHAR

STARTCHAR Ecircumflex
ENCODING 202
SWIDTH 547 0
DWIDTH 8 0
BBX 6 12 1 0
BITMAP
30
78
CC
00
FC
FC
C0
F8
F8
C0
FC
FC
ENDCHAR

STARTCHAR Edieresis
ENCODING 203
SWIDTH 547 0
DWIDTH 8 0
BBX 6 11 1 0
BITMAP
D8
D8
00
FC
FC
C0
F8
F8
C0
FC
FC
ENDCHAR

STARTCHAR Igrave
ENCODING 204
SWIDTH 228 0
DWIDTH 6 0
BBX 4 12 1 0
BITMAP
C0
E0
30
00
60
60
60
60
60
60
60
60
ENDCHAR

STARTCHAR Iacute
ENCODING 205
SWIDTH 228 0
DWIDTH 6 0
BBX 4 12 1 0
BITMAP
30
70
C0
00
60
60
60
60
60
60
60
60
ENDCHAR

STARTCHAR Icircumflex
ENCODING 206
SWIDTH 228 0
DWIDTH 6 0
BBX 6 12 0 0
BITMAP
30
78
CC
00
30
30
30
30
30
30
30
30
ENDCHAR

STARTCHAR Idieresis
ENCODING 207
SWIDTH 228 0
DWIDTH 6 0
BBX 5 11 0 0
BITMAP
D8
D8
00
30
30
30
30
30
30
30
30
ENDCHAR

STARTCHAR Eth
ENCODING 208
SWIDTH 592 0
DWIDTH 9 0
BBX 8 11 0 0
BITMAP
7C
7E
67
63
FB
FB
63
63
67
7E
7C
ENDCHAR

STARTCHAR Ntilde
ENCODING 209
SWIDTH 592 0
DWIDTH 9 0
BBX 7 12 1 0
BITMAP
34
7C
58
00
C6
E6
E6
F6
DE
CE
CE
C6
ENDCHAR

STARTCHAR Ograve
ENCODING 210
SWIDTH 638 0
DWIDTH 9 0
BBX 7 12 1 0
BITMAP
60
70
18
00
7C
FE
C6
C6
C6
C6
FE
7C
ENDCHAR

STARTCHAR Oacute
ENCODING 211
SWIDTH 638 0
DWIDTH 9 0
BBX 7 12 1 0
BITMAP
0C
1C
30
00
7C
FE
C6
C6
C6
C6
FE
7C
ENDCHAR

STARTCHAR Ocircumflex
ENCODING 212
SWIDTH 638 0
DWIDTH 9 0
BBX 7 12 1 0
BITMAP
30
78
CC
00
7C
FE
C6
C6
C6
C6
FE
7C
ENDCHAR

STARTCHAR Otilde
ENCODING 213
SWIDTH 638 0
DWIDTH 9 0
BBX 7 12 1 0
BITMAP
34
7C
58
00
7C
FE
C6
C6
C6
C6
FE
7C
ENDCHAR

STARTCHAR Odieresis
ENCODING 214
SWIDTH 638 0
DWIDTH 9 0
BBX 7 11 1 0
BITMAP
6C
6C
00
7C
FE
C6
C6
C6
C6
FE
7C
ENDCHAR

STARTCHAR multiply
ENCODING 215
SWIDTH 479 0
DWIDTH 7 0
BBX 6 6 0 1
BITMAP
CC
78
30
30
78
CC
ENDCHAR

STARTCHAR Oslash
ENCODING 216
SWIDTH 638 0
DWIDTH 9 0
BBX 9 11 0 0
BITMAP
3D80
7F00
6300
6700
6F00
6B00
7B00
7300
6300
7F00
DE00
ENDCHAR

STARTCHAR Ugrave
ENCODING 217
SWIDTH 592 0
DWIDTH 9 0
BBX 7 12 1 0
BITMAP
60
70
18
00
C6
C6
C6
C6
C6
C6
FE
7C
ENDCHAR

STARTCHAR Uacute
ENCODING 218
SWIDTH 592 0
DWIDTH 9 0
BBX 7 12 1 0
BITMAP
0C
1C
30
00
C6
C6
C6
C6
C6
C6
FE
7C
ENDCHAR

STARTCHAR Ucircumflex
ENCODING 219
SWIDTH 592 0
DWIDTH 9 0
BBX 7 12 1 0
BITMAP
30
78
CC
00
C6
C6
C6
C6
C6
C6
FE
7C
ENDCHAR

STARTCHAR Udieresis
ENCODING 220
SWIDTH 592 0
DWIDTH 9 0
BBX 7 11 1 0
BITMAP
6C
6C
00
C6
C6
C6
C6
C6
C6
FE
7C
ENDCHAR

STARTCHAR Yacute
ENCODING 221
SWIDTH 547 0
DWIDTH 8 0
BBX 8 12 0 0
BITMAP
0C
1C
30
00
C3
E7
7E
3C
18
18
18
18
ENDCHAR

STARTCHAR Thorn
ENCODING 222
SWIDTH 547 0
DWIDTH 9 0
BBX 7 11 1 0
BITMAP
C0
C0
FC
FE
C6
C6
C6
FE
FC
C0
C0
ENDCHAR

STARTCHAR germandbls
ENCODING 223
SWIDTH 501 0
DWIDTH 7 0
BBX 6 11 0 0
BITMAP
78
FC
CC
CC
D8
D8
CC
CC
CC
DC
D8
ENDCHAR

STARTCHAR agrave
ENCODING 224
SWIDTH 456 0
DWIDTH 7 0
BBX 7 12 0 0
BITMAP
60
70
18
00
78
FC
8C
7C
FC
CC
FC
76
ENDCHAR

STARTCHAR aacute
ENCODING 225
SWIDTH 456 0
DWIDTH 7 0
BBX 7 12 0 0
BITMAP
18
38
60
00
78
FC
8C
7C
FC
CC
FC
76
ENDCHAR

STARTCHAR acircumflex
ENCODING 226
SWIDTH 456 0
DWIDTH 7 0
BBX 7 12 0 0
BITMAP
30
78
CC
00
78
FC
8C
7C
FC
CC
FC
76
ENDCHAR

STARTCHAR atilde
ENCODING 227
SWIDTH 456 0
DWIDTH 7 0
BBX 7 12 0 0
BITMAP
34
7C
58
00
78
FC
8C
7C
FC
CC
FC
76
ENDCHAR

STARTCHAR adieresis
ENCODING 228
SWIDTH 456 0
DWIDTH 7 0
BBX 7 11 0 0
BITMAP
D8
D8
00
78
FC
8C
7C
FC
CC
FC
76
ENDCHAR

STARTCHAR aring
ENCODING 229
SWIDTH 456 0
DWIDTH 7 0
BBX 7 12 0 0
BITMAP
30
68
30
00
78
FC
8C
7C
FC
CC
FC
76
ENDCHAR

STARTCHAR ae
ENCODING 230
SWIDTH 729 0
DWIDTH 11 0
BBX 10 8 0 0
BITMAP
7B80
FFC0
8CC0
7FC0
FFC0
CC00
FFC0
7780
ENDCHAR

STARTCHAR ccedilla
ENCODING 231
SWIDTH 456 0
DWIDTH 7 0
BBX 6 11 0 -3
BITMAP
78
FC
CC
C0
C0
CC
FC
78
20
30
60
ENDCHAR

STARTCHAR egrave
ENCODING 232
SWIDTH 456 0
DWIDTH 7 0
BBX 6 12 0 0
BITMAP
60
70
18
00
78
FC
CC
FC
FC
C0
FC
78
ENDCHAR

STARTCHAR eacute
ENCODING 233
SWIDTH 456 0
DWIDTH 7 0
BBX 6 12 0 0
BITMAP
18
38
60
00
78
FC
CC
FC
FC
C0
FC
78
ENDCHAR

STARTCHAR ecircumflex
ENCODING 234
SWIDTH 456 0
DWIDTH 7 0
BBX 6 12 0 0
BITMAP
30
78
CC
00
78
FC
CC
FC
FC
C0
FC
78
ENDCHAR

STARTCHAR edieresis
ENCODING 235
SWIDTH 456 0
DWIDTH 7 0
BBX 6 11 0 0
BITMAP
D8
D8
00
78
FC
CC
FC
FC
C0
FC
78
ENDCHAR

STARTCHAR igrave
ENCODING 236
SWIDTH 228 0
DWIDTH 5 0
BBX 4 12 0 0
BITMAP
C0
E0
30
00
60
60
60
60
60
60
60
60
ENDCHAR

STARTCHAR iacute
ENCODING 237
SWIDTH 228 0
DWIDTH 5 0
BBX 4 12 0 0
BITMAP
30
70
C0
00
60
60
60
60
60
60
60
60
ENDCHAR

STARTCHAR icircumflex
ENCODING 238
SWIDTH 228 0
DWIDTH 5 0
BBX 6 12 -1 0
BITMAP
30
78
CC
00
30
30
30
30
30
30
30
30
ENDCHAR

STARTCHAR idieresis
ENCODING 239
SWIDTH 228 0
DWIDTH 5 0
BBX 5 11 -1 0
BITMAP
D8
D8
00
30
30
30
30
30
30
30
30
ENDCHAR

STARTCHAR eth
ENCODING 240
SWIDTH 501 0
DWIDTH 7 0
BBX 6 11 0 0
BITMAP
D0
60
B0
78
FC
CC
CC
CC
CC
FC
78
ENDCHAR

STARTCHAR ntilde
ENCODING 241
SWIDTH 501 0
DWIDTH 7 0
BBX 6 12 0 0
BITMAP
68
F8
B0
00
D8
FC
EC
CC
CC
CC
CC
CC
ENDCHAR

STARTCHAR ograve
ENCODING 242
SWIDTH 501 0
DWIDTH 7 0
BBX 6 12 0 0
BITMAP
60
70
18
00
78
FC
CC
CC
CC
CC
FC
78
ENDCHAR

STARTCHAR oacute
ENCODING 243
SWIDTH 501 0
DWIDTH 7 0
BBX 6 12 0 0
BITMAP
18
38
60
00
78
FC
CC
CC
CC
CC
FC
78
ENDCHAR

STARTCHAR ocircumflex
ENCODING 244
SWIDTH 501 0
DWIDTH 7 0
BBX 6 12 0 0
BITMAP
30
78
CC
00
78
FC
CC
CC
CC
CC
FC
78
ENDCHAR

STARTCHAR otilde
ENCODING 245
SWIDTH 501 0
DWIDTH 7 0
BBX 6 12 0 0
BITMAP
68
F8
B0
00
78
FC
CC
CC
CC
CC
FC
78
ENDCHAR

STARTCHAR odieresis
ENCODING 246
SWIDTH 501 0
DWIDTH 7 0
BBX 6 11 0 0
BITMAP
D8
D8
00
78
FC
CC
CC
CC
CC
FC
78
ENDCHAR

STARTCHAR divide
ENCODING 247
SWIDTH 479 0
DWIDTH 7 0
BBX 6 8 0 0
BITMAP
30
30
00
FC
FC
00
30
30
ENDCHAR

STARTCHAR oslash
ENCODING 248
SWIDTH 501 0
DWIDTH 7 0
BBX 6 10 0 -1
BITMAP
0C
78
FC
CC
DC
EC
CC
FC
78
C0
ENDCHAR

STARTCHAR ugrave
ENCODING 249
SWIDTH 501 0
DWIDTH 7 0
BBX 6 12 0 0
BITMAP
60
70
18
00
CC
CC
CC
CC
CC
DC
FC
6C
ENDCHAR

STARTCHAR uacute
ENCODING 250
SWIDTH 501 0
DWIDTH 7 0
BBX 6 12 0 0
BITMAP
18
38
60
00
CC
CC
CC
CC
CC
DC
FC
6C
ENDCHAR

STARTCHAR ucircumflex
ENCODING 251
SWIDTH 501 0
DWIDTH 7 0
BBX 6 12 0 0
BITMAP
30
78
CC
00
CC
CC
CC
CC
CC
DC
FC
6C
ENDCHAR

STARTCHAR udieresis
ENCODING 252
SWIDTH 501 0
DWIDTH 7 0
BBX 6 11 0 0
BITMAP
D8
D8
00
CC
CC
CC
CC
CC
DC
FC
6C
ENDCHAR

STARTCHAR yacute
ENCODING 253
SWIDTH 456 0
DWIDTH 7 0
BBX 6 15 0 -3
BITMAP
18
38
60
00
CC
CC
CC
48
78
78
38
30
30
F0
E0
ENDCHAR

STARTCHAR thorn
ENCODING 254
SWIDTH 501 0
DWIDTH 7 0
BBX 6 14 0 -3
BITMAP
C0
C0
C0
D8
FC
CC
CC
CC
CC
FC
D8
C0
C0
C0
ENDCHAR

STARTCHAR ydieresis
ENCODING 255
SWIDTH 456 0
DWIDTH 7 0
BBX 6 14 0 -3
BITMAP
D8
D8
00
CC
CC
CC
48
78
78
38
30
30
F0
E0
ENDCHAR
ENDFONT
